<?xml version="1.0" standalone="no"?>
<!DOCTYPE svg PUBLIC "-//W3C//DTD SVG 20010904//EN"
 "http://www.w3.org/TR/2001/REC-SVG-20010904/DTD/svg10.dtd">
<svg version="1.0" xmlns="http://www.w3.org/2000/svg"
 width="976.000000pt" height="976.000000pt" viewBox="0 0 976.000000 976.000000"
 preserveAspectRatio="xMidYMid meet">
<metadata>
Created by potrace 1.14, written by Peter Selinger 2001-2017
</metadata>
<g transform="translate(0.000000,976.000000) scale(0.100000,-0.100000)"
fill="#000000" stroke="none">
<path d="M7635 9750 c-33 -3 -77 -6 -98 -6 -20 1 -37 -1 -37 -4 0 -3 -15 -6
-32 -6 -31 -1 -128 -10 -193 -19 -16 -3 -48 -7 -70 -9 -64 -8 -178 -26 -255
-41 -13 -3 -40 -7 -60 -10 -20 -3 -47 -8 -60 -10 -14 -3 -41 -8 -60 -11 -46
-8 -65 -12 -65 -14 0 -1 -11 -3 -25 -5 -32 -6 -65 -13 -65 -15 0 -1 -15 -3
-33 -6 -19 -2 -68 -13 -110 -23 -43 -11 -88 -22 -102 -25 -14 -2 -32 -7 -40
-10 -8 -3 -28 -7 -45 -10 -16 -3 -55 -12 -85 -21 -30 -9 -64 -18 -75 -20 -11
-3 -69 -19 -130 -35 -60 -17 -117 -33 -125 -35 -125 -31 -758 -239 -855 -280
-16 -7 -61 -23 -100 -36 -38 -13 -72 -26 -75 -29 -3 -3 -13 -6 -22 -8 -9 -1
-41 -13 -71 -27 -30 -13 -58 -21 -61 -18 -3 4 -6 1 -6 -5 0 -7 -7 -12 -15 -12
-13 0 -51 -15 -213 -82 -15 -6 -29 -12 -32 -13 -33 -11 -137 -57 -165 -72 -16
-10 -30 -16 -30 -14 0 6 -112 -42 -295 -127 -41 -19 -131 -60 -200 -92 -150
-69 -516 -254 -536 -271 -8 -6 -14 -8 -14 -5 0 4 -13 -2 -29 -13 -16 -12 -31
-21 -34 -21 -3 0 -49 -25 -102 -55 -54 -30 -101 -55 -105 -55 -5 0 -10 -3 -12
-7 -1 -5 -22 -18 -45 -30 l-41 -23 -22 43 c-12 23 -29 56 -39 72 -10 17 -37
66 -61 110 -23 44 -46 85 -50 90 -4 6 -23 39 -42 75 -20 36 -45 81 -57 100
-11 19 -25 44 -30 56 -5 11 -29 55 -55 97 -25 42 -43 77 -40 77 3 0 0 6 -6 13
-23 26 -137 227 -132 232 3 3 0 5 -6 5 -7 0 -12 5 -12 11 0 6 -13 31 -30 56
-16 24 -30 46 -30 49 0 8 -54 78 -62 82 -5 2 -8 8 -8 13 0 26 -181 199 -209
199 -6 0 -11 4 -11 9 0 13 -130 75 -182 87 -10 2 -28 6 -40 9 -28 6 -143 8
-178 2 -99 -16 -219 -81 -306 -165 -97 -94 -147 -172 -227 -352 -22 -52 -97
-290 -97 -311 0 -10 -4 -20 -10 -24 -5 -3 -7 -12 -3 -20 3 -8 1 -15 -3 -15 -5
0 -9 -10 -10 -22 0 -13 -13 -75 -28 -138 -28 -119 -32 -142 -42 -199 -3 -18
-8 -43 -10 -55 -6 -30 -32 -184 -40 -230 -3 -21 -7 -46 -9 -55 -2 -15 -15
-102 -21 -146 -1 -11 -3 -20 -4 -20 -1 0 -4 -17 -5 -38 -2 -21 -6 -52 -9 -70
-4 -18 -9 -56 -12 -85 -6 -53 -11 -87 -14 -87 -1 0 -3 -18 -5 -40 -4 -50 -14
-139 -22 -185 -3 -19 -7 -51 -8 -70 -10 -102 -15 -149 -20 -185 -2 -22 -7 -65
-10 -95 -3 -30 -7 -73 -10 -95 -2 -22 -7 -74 -11 -115 -4 -41 -8 -86 -9 -100
-2 -14 -6 -56 -9 -95 -4 -38 -8 -88 -11 -110 -3 -22 -7 -74 -10 -115 -4 -41
-8 -95 -10 -120 -5 -44 -10 -104 -20 -225 -3 -33 -8 -87 -10 -120 -11 -144
-13 -153 -55 -255 -18 -41 -33 -82 -35 -90 -2 -8 -11 -35 -20 -60 -17 -49 -51
-175 -60 -229 -3 -19 -7 -37 -9 -40 -2 -3 -7 -28 -11 -56 -3 -27 -12 -95 -19
-150 -13 -98 -14 -413 -2 -500 4 -22 8 -60 11 -85 2 -25 5 -45 6 -45 1 0 3 -9
5 -20 2 -11 6 -33 9 -50 3 -16 7 -41 10 -54 5 -33 47 -165 54 -171 3 -3 13
-18 21 -35 24 -48 131 -148 185 -174 77 -36 86 -40 141 -49 156 -27 307 22
386 125 22 29 85 162 93 198 1 5 5 17 8 25 3 8 9 29 13 45 4 17 8 35 10 40 15
58 41 195 69 365 7 39 16 119 29 260 4 41 9 86 11 100 2 14 7 61 10 105 4 44
8 100 10 125 2 25 7 90 10 145 10 173 15 196 52 269 31 59 158 266 186 301 4
6 33 44 64 85 54 72 172 217 203 250 8 9 44 50 80 90 143 163 238 260 365 375
48 44 98 91 110 104 l23 24 17 -34 c10 -19 32 -61 50 -94 18 -33 85 -163 150
-290 275 -538 338 -661 345 -670 9 -12 58 -102 133 -246 30 -59 60 -115 66
-125 65 -117 251 -467 251 -473 0 -5 4 -11 8 -13 5 -1 26 -35 48 -75 186 -343
362 -590 462 -648 17 -11 32 -23 32 -27 0 -4 6 -8 13 -8 7 0 19 -6 26 -13 6
-6 15 -12 19 -13 13 -1 47 -18 52 -24 13 -18 131 -38 210 -35 80 3 106 9 197
51 81 37 227 176 268 253 8 17 20 31 25 31 5 0 12 10 16 23 3 12 14 33 23 47
17 26 68 136 127 275 9 22 18 45 19 50 2 6 14 35 27 65 24 53 40 90 43 100 1
3 9 23 19 45 10 22 31 74 48 115 31 77 149 361 173 415 7 17 37 84 65 150 159
367 381 779 567 1053 24 35 43 65 43 68 0 2 6 12 14 21 8 10 59 79 112 153 54
74 102 137 106 138 4 2 8 10 8 17 0 7 3 15 8 17 4 2 26 28 49 58 24 30 49 62
56 70 7 8 40 49 73 90 32 41 61 77 64 80 3 3 21 25 40 50 40 51 42 54 176 210
97 114 217 240 227 240 3 0 18 11 32 24 28 26 113 74 149 83 47 13 142 7 182
-13 77 -36 181 -138 264 -259 14 -20 30 -42 35 -48 6 -7 19 -29 30 -49 11 -21
23 -38 27 -38 5 0 7 -3 6 -7 -1 -5 13 -35 33 -68 108 -185 227 -469 337 -805
50 -155 124 -404 137 -460 2 -8 17 -71 35 -140 41 -160 41 -161 45 -187 2 -12
6 -26 9 -31 3 -5 9 -27 12 -48 8 -48 12 -69 14 -69 2 0 5 -14 13 -60 6 -28 9
-45 22 -105 11 -48 46 -225 51 -255 3 -16 7 -41 10 -55 3 -14 7 -38 10 -55 3
-16 11 -61 19 -100 7 -38 18 -104 25 -145 6 -41 14 -86 17 -100 3 -14 7 -38 8
-55 4 -37 12 -94 25 -165 5 -30 12 -75 15 -100 3 -25 8 -56 10 -70 2 -14 7
-47 10 -74 3 -27 8 -53 11 -58 3 -4 -1 -8 -8 -8 -9 0 -9 -3 -2 -8 6 -4 11 -14
11 -22 1 -8 4 -33 8 -55 3 -22 6 -47 7 -55 0 -8 4 -49 9 -90 5 -41 12 -102 14
-135 3 -33 7 -71 10 -85 2 -14 7 -60 10 -102 4 -43 8 -90 10 -105 2 -16 7 -68
10 -118 3 -49 8 -101 10 -115 5 -31 18 -245 19 -322 1 -32 3 -58 6 -58 9 0 13
-255 12 -745 0 -421 -4 -578 -16 -726 -2 -26 -7 -82 -10 -125 -4 -44 -8 -92
-10 -109 -2 -16 -7 -57 -11 -90 -3 -33 -8 -71 -10 -85 -3 -14 -7 -45 -9 -70
-3 -25 -10 -69 -15 -98 -6 -29 -10 -56 -9 -60 1 -4 -2 -18 -5 -32 -4 -14 -9
-37 -12 -52 -12 -66 -16 -87 -31 -153 -15 -69 -49 -195 -61 -225 -3 -8 -8 -23
-10 -34 -4 -23 -78 -207 -100 -250 -57 -112 -138 -202 -212 -238 -45 -22 -117
-28 -176 -15 -42 9 -170 75 -191 98 -9 10 -21 19 -26 19 -8 0 -40 27 -110 92
-16 16 -33 28 -36 28 -4 0 -13 9 -20 20 -7 11 -18 20 -25 20 -8 0 -9 -3 -1 -8
6 -4 37 -38 70 -77 85 -102 116 -135 126 -135 4 0 17 -8 27 -18 40 -36 53 -44
118 -74 152 -71 320 -32 438 101 16 19 39 43 49 55 59 65 171 275 229 426 14
36 28 74 32 85 5 11 9 22 10 25 0 3 14 45 29 94 16 49 29 94 30 100 1 6 5 16
8 22 4 6 10 24 12 40 3 16 22 91 41 167 19 76 33 143 30 148 -4 5 -1 9 6 9 7
0 10 2 7 5 -3 4 -1 25 4 48 5 23 12 53 14 67 2 14 7 36 9 50 22 109 45 241 43
248 -1 4 2 27 6 52 4 25 10 59 12 75 2 17 6 41 9 55 2 14 7 57 10 95 3 39 8
84 10 100 2 17 7 57 10 90 4 33 9 80 11 105 3 25 6 72 9 105 2 33 6 85 10 115
3 30 7 89 10 130 2 41 5 75 5 75 1 0 10 160 15 260 2 50 4 90 5 90 1 0 3 38 5
85 1 47 6 191 10 320 10 307 10 807 1 1145 -9 298 -13 430 -16 430 -1 0 -3 38
-5 85 -2 47 -6 117 -9 155 -3 39 -8 106 -11 150 -3 44 -8 103 -10 130 -10 106
-16 171 -20 205 -2 19 -7 64 -11 100 -8 84 -11 105 -19 160 -3 25 -8 61 -10
80 -4 46 -15 129 -21 160 -2 14 -7 43 -10 65 -8 67 -37 241 -50 305 -3 14 -7
39 -9 55 -3 17 -8 41 -11 55 -3 14 -7 34 -9 45 -4 22 -38 174 -62 275 -8 36
-17 80 -20 98 -3 17 -9 32 -15 32 -5 0 -7 4 -4 8 3 4 1 24 -4 43 -18 68 -61
214 -69 234 -5 11 -18 49 -29 85 -30 93 -61 180 -78 217 -7 17 -14 34 -14 37
0 18 -140 306 -189 391 -17 28 -37 63 -45 78 -37 69 -164 232 -244 315 -88 90
-210 192 -231 192 -6 0 -11 4 -11 8 0 7 -100 60 -180 95 -46 20 -168 56 -206
60 -17 2 -34 6 -39 9 -13 7 -250 2 -300 -6 -41 -7 -185 -50 -220 -66 -11 -4
-46 -20 -78 -34 -138 -60 -343 -198 -499 -335 -77 -69 -338 -327 -338 -336 0
-3 -17 -23 -37 -45 -58 -61 -127 -141 -137 -159 -5 -9 -20 -26 -33 -38 -13
-13 -21 -23 -17 -23 4 0 1 -6 -8 -12 -24 -20 -249 -323 -247 -334 0 -4 -4 -10
-10 -13 -5 -4 -62 -85 -125 -181 -64 -96 -119 -180 -123 -186 -5 -5 -14 -21
-22 -35 -8 -13 -49 -80 -90 -149 -42 -69 -87 -146 -101 -172 -14 -27 -28 -48
-32 -48 -5 0 -8 -4 -8 -9 0 -8 -38 -79 -110 -206 -12 -22 -65 -125 -118 -230
-52 -104 -100 -193 -106 -197 -6 -4 -8 -8 -4 -8 4 0 -6 -28 -22 -62 -17 -35
-30 -68 -30 -75 0 -6 -4 -13 -10 -15 -5 -1 -11 -12 -13 -23 -2 -11 -10 -36
-19 -55 -9 -19 -28 -64 -41 -100 -14 -36 -31 -78 -38 -95 -7 -16 -13 -34 -15
-40 -1 -5 -8 -23 -15 -40 -7 -16 -13 -32 -14 -35 -4 -18 -47 -128 -55 -142 -6
-10 -10 -22 -10 -27 0 -5 -9 -31 -21 -58 l-21 -48 -17 35 c-9 19 -51 98 -91
175 -99 188 -164 311 -191 365 -13 25 -35 66 -51 93 -15 26 -25 47 -22 47 4 0
2 6 -4 13 -10 11 -55 97 -170 322 -26 50 -50 92 -54 93 -5 2 -8 10 -8 17 0 8
-9 29 -19 47 -24 40 -158 298 -238 458 -32 63 -60 117 -63 120 -3 3 -22 37
-41 75 -20 39 -57 109 -82 156 -25 47 -42 90 -38 95 11 15 160 124 170 124 5
0 11 4 13 9 3 9 414 285 555 372 91 57 403 243 453 270 25 13 47 26 50 29 3 3
23 14 45 25 22 11 42 22 45 25 5 5 109 61 175 94 22 11 42 24 43 28 2 4 12 8
22 8 10 0 21 4 24 9 5 8 471 244 486 246 3 1 41 18 85 39 44 21 100 47 125 58
25 11 61 26 80 35 19 8 53 23 75 33 22 10 63 28 91 39 28 11 71 29 95 40 24
11 114 46 199 79 85 33 164 63 175 67 11 5 22 9 25 9 5 1 113 40 150 54 8 3
17 6 20 7 19 4 89 28 105 35 11 5 74 25 140 45 66 20 131 41 145 45 26 9 100
29 112 30 4 0 26 7 48 15 22 8 40 12 40 9 0 -2 8 0 18 5 9 5 31 12 47 15 17 3
86 19 155 36 69 16 140 33 159 36 18 3 43 8 55 11 11 2 30 6 41 8 19 3 52 9
100 19 28 5 83 13 210 31 11 1 40 6 64 9 109 18 338 30 526 28 144 -1 280 -7
280 -12 0 -1 23 -3 50 -5 28 -2 64 -6 80 -10 17 -3 41 -8 55 -11 14 -2 48 -9
75 -16 28 -6 52 -11 55 -11 3 1 13 -3 23 -9 10 -5 26 -11 36 -13 9 -2 49 -17
87 -35 38 -17 71 -32 74 -32 3 -1 16 -12 30 -25 14 -13 29 -23 34 -23 22 0
120 -121 151 -185 38 -80 52 -127 59 -203 3 -29 8 -57 11 -62 3 -6 1 -10 -5
-10 -6 0 -8 -5 -3 -12 10 -17 10 -49 1 -70 -5 -9 -3 -20 2 -23 6 -4 7 -11 4
-17 -4 -5 -8 -29 -10 -51 -7 -70 -19 -138 -39 -220 -18 -69 -17 -67 -7 -67 5
0 9 6 10 13 0 6 14 57 32 112 17 55 33 114 36 130 2 17 7 37 9 45 33 117 28
344 -9 445 -30 80 -79 158 -141 222 -38 40 -73 73 -77 73 -4 0 -19 10 -34 23
-14 12 -27 20 -29 17 -1 -3 -11 2 -21 12 -26 22 -152 83 -228 108 -33 12 -68
24 -76 27 -8 3 -19 7 -25 8 -5 2 -37 10 -70 20 -33 9 -69 18 -80 20 -11 2 -31
6 -45 9 -124 27 -114 25 -255 41 -33 4 -73 9 -90 12 -46 8 -592 10 -660 3z
m-5908 -1492 c13 -21 20 -38 17 -38 -4 0 0 -8 8 -17 8 -10 34 -54 58 -98 23
-44 56 -105 72 -135 16 -30 34 -59 39 -64 5 -6 9 -18 9 -28 0 -10 5 -18 10
-18 6 0 10 -6 10 -14 0 -8 6 -21 13 -28 18 -20 97 -176 97 -193 0 -8 -4 -15
-9 -15 -5 0 -16 -6 -23 -12 -7 -7 -38 -32 -68 -55 -30 -23 -65 -51 -77 -62
-12 -12 -25 -21 -28 -21 -3 0 -13 -8 -23 -17 -10 -10 -35 -31 -56 -48 -21 -16
-50 -41 -65 -55 -15 -14 -53 -49 -84 -77 -31 -29 -57 -50 -57 -47 0 4 -9 -5
-21 -20 -27 -35 -39 -33 -34 7 7 45 13 93 20 158 3 31 7 65 9 75 2 11 7 48 10
84 4 36 11 90 16 120 5 30 12 79 15 109 4 30 9 63 11 75 3 12 7 37 9 56 7 59
23 154 32 195 2 11 5 29 7 40 2 11 6 34 9 50 4 17 9 44 12 60 14 83 25 111 33
85 3 -8 16 -32 29 -52z"/>
</g>
</svg>
